<?xml version="1.0" encoding="utf-8"?>
<!-- Generator: Adobe Illustrator 16.0.0, SVG Export Plug-In . SVG Version: 6.00 Build 0)  -->
<svg version="1.2" baseProfile="tiny" id="Layer_1" xmlns="http://www.w3.org/2000/svg" xmlns:xlink="http://www.w3.org/1999/xlink"
	 x="0px" y="0px" width="800px" height="800px" viewBox="0 0 800 800" xml:space="preserve">
<g>
	<g>
		<path fill="#005DAB" d="M202.243,310.78l-97.496-44.147V148.898l224.431,103.017l60.705-27.594
			c3.681-1.841,7.361-5.521,7.361-9.197c0-3.68-3.681-7.36-7.361-11.041l-202.353-91.98l178.438-82.778
			c3.681-1.84,9.197-3.68,14.718-3.68c5.516,0,11.037,1.84,14.717,3.68l270.424,123.251c12.869,5.52,27.589,12.877,27.589,29.434
			c0,16.559-14.72,23.914-27.589,29.436l-213.395,97.495l213.395,97.496c12.869,5.525,27.589,12.886,27.589,29.443
			c0,16.549-14.72,23.909-27.589,29.426L395.403,588.56c-3.68,1.845-9.201,3.681-14.717,3.681c-5.521,0-11.037-1.836-14.718-3.681
			L185.69,507.617l202.353-91.984c3.681-1.837,7.36-5.508,7.36-11.032c0-3.682-3.68-7.357-7.36-9.197l-60.705-27.595
			L104.747,470.829V354.932L202.243,310.78z"/>
	</g>
	<path fill="#005DAB" d="M104.747,774.355v-90.132h79.104c16.557,0,42.311,1.836,42.311,23.91c0,11.04-9.2,18.402-20.237,20.237
		c12.877,3.673,18.397,11.033,18.397,20.23c0,22.082-23.914,23.917-42.313,23.917h-77.262V774.355z M134.182,735.732l7.356-14.722
		c1.84-3.681,5.521-5.517,9.197-5.517h16.557l0,0h16.559c5.516,0,11.036-1.844,11.036-7.36c0-3.681-3.681-7.352-11.036-7.352
		h-49.669V735.732z M134.182,735.732v38.623l7.356-12.869c1.84-3.688,5.521-5.525,9.197-5.525h31.273
		c5.521,0,11.037-3.671,11.037-9.196c0-5.517-3.68-9.197-11.037-9.197h-47.827V735.732z M294.228,704.453l-38.636,68.065h-33.11
		l53.348-90.139h18.398h18.394l53.348,90.139h-33.11l-9.2-16.558h-49.669l9.196-14.713c1.841-3.681,5.521-5.516,9.201-5.516h22.074
		L294.228,704.453z M529.695,704.453l-38.632,68.065h-33.114l53.353-90.139h18.394h18.394l53.344,90.139h-33.105l-9.206-16.558
		h-49.663l9.196-14.713c1.845-3.681,5.516-5.516,9.205-5.516h22.065L529.695,704.453z M419.318,754.125
		c7.359,0,11.032-3.681,11.032-9.197v-60.704h29.442v62.541c0,20.237-12.885,25.754-29.442,25.754h-47.824
		c-3.681,0-7.36-1.835-9.201-5.517l-9.196-14.712h55.189V754.125z M654.785,754.125c7.36,0,11.042-3.681,11.042-9.197v-60.704
		h29.426v62.541c0,20.237-12.868,25.754-29.426,25.754H617.99c-3.672,0-7.36-1.835-9.197-5.517l-9.195-14.712h55.188V754.125z"/>
</g>
</svg>
